# xmcd
#
# Track frame offsets:
#	150
#	20398
#	36413
#	51637
#	66545
#	84803
#	99777
#	115969
#	133005
#	146612
#	161709
#	178896
#	194451
#	213136
#	238550
#
# Disc length: 3522
#
# Revision: 2
# Processed by: cddbd v1.5.1PL0 Copyright (c) Steve Scherf et al.
# Submitted via: audiograbber 1.83.01
# Normalized: r1:DSETVAR1
#
DISCID=d80dc00f
DTITLE=Various Artist - Goldene Schlagerparade 7/2003
DYEAR=2003
DGENRE=Schlager
TTITLE0=Udo Jürgens - Schöne Grüße aus der Hölle
TTITLE1=Ireen Sheer - Ich bin stark
TTITLE2=Golden Sunshine - Das Lied der Sehnsucht
TTITLE3=Michelle - Hast du Lust
TTITLE4=Andreas Rauch - Mit dir will ich leben
TTITLE5=Gaby Baginsky - Frag doch den Sommerwind
TTITLE6=Wolfgang Petry - Kein Grund zur Panik
TTITLE7=Andreas Berg - Ein Schiff wird kommen
TTITLE8=G G Anderson - Wir haben die ganze Nacht
TTITLE9=Marlena Martinelli - Wer wenn nicht du
TTITLE10=Duo Treibsand - Lass uns noch einmal träumen
TTITLE11=Claudia Jung - Mittenrein ins Glück
TTITLE12=Roland Kaiser - Allein mit dir
TTITLE13=Angelina - Komm tanz noch einmal mit mir
TTITLE14=Data - Daten-CD
EXTD=
EXTT0=
EXTT1=
EXTT2=
EXTT3=
EXTT4=
EXTT5=
EXTT6=
EXTT7=
EXTT8=
EXTT9=
EXTT10=
EXTT11=
EXTT12=
EXTT13=
EXTT14=
PLAYORDER=
